PathFileType	4	(X/Y/Z)	Patient4_TMGait_0pt5_01_left_08.trc.trc
DataRate	CameraRate	NumFrames	NumMarkers	Units	OrigDataRate	OrigDataStartFrame	OrigNumFrames
75.268817204301	75.268817204301	4	33	mm	75.268817204301	124	       141
Frame#	Time	L.ASIS			Sacral			L.Shoulder			Chest			R.Shoulder			Neck			R.ASIS			R.Thigh.Superior			R.Thigh.Lateral			R.Thigh.Inferior			R.Patella			L.Thigh.Superior			L.Thigh.Lateral			L.Thigh.Inferior			L.Patella			L.Shank.Superior			L.Shank.Lateral			L.Shank.Inferior			R.Shank.Superior			R.Shank.Lateral			R.Shank.Inferior			R.Heel			R.Midfoot.Superior			R.Midfoot.Lateral			R.Toe			L.Heel			L.Midfoot.Lateral			L.Midfoot.Superior			L.Toe			L.Elbow			L.Wrist			R.Elbow			R.Wrist			
		X1	Y1	Z1	X2	Y2	Z2	X3	Y3	Z3	X4	Y4	Z4	X5	Y5	Z5	X6	Y6	Z6	X7	Y7	Z7	X8	Y8	Z8	X9	Y9	Z9	X10	Y10	Z10	X11	Y11	Z11	X12	Y12	Z12	X13	Y13	Z13	X14	Y14	Z14	X15	Y15	Z15	X16	Y16	Z16	X17	Y17	Z17	X18	Y18	Z18	X19	Y19	Z19	X20	Y20	Z20	X21	Y21	Z21	X22	Y22	Z22	X23	Y23	Z23	X24	Y24	Z24	X25	Y25	Z25	X26	Y26	Z26	X27	Y27	Z27	X28	Y28	Z28	X29	Y29	Z29	X30	Y30	Z30	X31	Y31	Z31	X32	Y32	Z32	X33	Y33	Z33	

124	12.374142857143	697.782669024198	958.950150039618	345.348900894308	502.482217498113	1000.649017061883	525.479596726543	647.233558446802	1440.051333217105	345.960293214613	768.883236728985	1361.124797819034	489.620778736835	704.959665881542	1424.120205958353	676.864344446613	663.147455953708	1491.955797868032	499.750884528294	738.074336223353	935.665833296399	618.048718919204	737.526916409520	723.679535939171	586.238611527038	636.934828905264	628.525263564937	650.372472762944	693.035498326196	564.875658400162	566.789391342956	674.519732991366	480.170246122044	569.492535011738	773.103272141454	768.251706217993	368.569068840276	712.126324292585	639.782207953748	301.227237462569	816.468157999171	579.141329504117	357.070779722236	841.809632817207	514.608783808639	355.668806930317	826.324929955948	442.887082264973	348.043704550407	759.917457174449	311.342475515465	302.925824571379	849.842988308437	214.834888466841	356.990786718748	638.092696570242	395.980620220476	575.454027207546	559.048590661720	297.848689451653	635.478985994386	589.963790482791	201.519696337498	568.754774686711	442.542389581510	42.214867542677	534.209544699258	613.872437486023	95.882659459665	572.043250055326	525.133989315659	35.566931915071	609.154198530133	733.318549652431	42.198010560669	601.379286853738	765.826164976057	40.275386862688	401.212101528671	838.501930457120	41.122135064522	319.734579396153	912.753503495758	114.600113437200	337.617156013369	1044.403979477945	79.175263992999	310.460782295371	525.472661289333	1112.349961373332	227.000711071750	524.813396515798	851.695320292382	210.065553189237	789.829355787728	1083.066294878370	764.780162378310	1032.831069072592	1076.964241425845	692.526103033824	
125	12.387428571429	699.477612767786	957.638746858054	344.071156889250	503.784557346605	999.369732591424	523.817846267189	646.108774689557	1438.760841046794	343.690469770266	768.370963204405	1360.791593801508	487.325524143159	704.361682539763	1423.735584695475	674.591317608232	661.995931320376	1491.037210945063	497.386708525325	739.381969978231	934.791933156957	616.770539322212	737.676755739649	722.444380155427	585.340675091951	636.061700295566	627.903135470220	649.434844444185	691.676666056721	563.753794027110	565.979277473651	672.225643529449	478.892290295963	568.419482997541	775.115873078564	766.489785488041	367.929437793324	712.972454495974	637.832048048146	301.488068597603	817.208481333206	577.392479342869	357.537547415564	841.728518965706	512.039896824654	356.676792367244	825.530167519914	439.828390157294	349.110282021403	757.020759191467	309.175477871687	304.419678446364	845.162061146720	211.394474799527	358.964468709702	634.985799036746	395.112601619575	574.658295711326	555.120787510180	297.854728227413	635.143599903532	584.713949576530	201.076823589540	568.409520816777	435.957504713044	42.293614276984	534.324974874596	607.378993659367	95.798398099603	572.057079271315	518.587446484572	35.483661680343	609.206146312648	726.799544554365	41.822845266411	601.404256526856	757.492309134690	39.299925871364	403.223766180705	829.993172723704	39.151351340819	321.491184647261	906.289597814371	110.246867752176	340.180192941488	1037.063623041926	71.410368420575	312.230866985751	523.740969116393	1110.910843310451	226.417952294649	523.101338007778	850.094912831877	210.540866675322	793.929833749097	1083.958640138754	762.080810130146	1036.193158992845	1083.558115364493	687.810791547961	
126	12.400714285714	701.254011944891	956.454635746137	342.702261714584	505.068361965647	998.253234256091	521.958670714142	645.170375404102	1437.509442532781	341.311520205368	768.013039249599	1360.520791726274	484.958530172141	703.875290166281	1423.452417014436	672.224241357270	661.009175487898	1490.195779827360	494.892913815206	740.700065998118	933.895727522213	615.374497856544	737.922327963612	721.248975281879	584.363982041059	635.293966087242	627.320447752150	648.338102700231	690.537162101093	562.667098600649	565.051853713704	670.163939225173	477.608475372639	567.243558866242	777.104422319604	764.823315090173	367.444541239401	714.098709057311	636.182784979027	301.535895691020	818.059208417424	575.851301451195	358.102685183779	841.651374917491	509.595505233187	357.737194423780	824.775871520875	436.957474838917	350.082334316506	754.297837601608	307.262753273450	305.552760742029	840.439210026537	208.178997453556	360.744828266953	632.077019827115	394.252854454301	573.771955574072	551.309535479917	297.949933854299	634.747104970066	579.561471185975	200.690853232874	568.053156873631	429.404704122341	42.505383358394	534.470764982516	600.946553806287	95.740444429890	572.090930719732	512.079230298702	35.441129727381	609.269022430145	720.330285668421	41.409350531570	601.440040968527	749.042160836012	38.435732219750	404.778501442428	821.479526207090	37.493614972243	322.895424033397	899.633539758946	106.302916458764	342.582613854693	1029.613044079352	64.323407274269	314.002260933599	522.601752980709	1109.299433270090	225.741713423196	522.125445705744	848.328474134103	210.825548498599	797.774128847418	1084.920347314812	759.536632789459	1039.308378408350	1089.467486293311	683.512565566478	
127	12.414000000000	703.017287542266	955.469671778751	341.215139442972	506.296645302081	997.354671237399	519.921699594063	644.461175122581	1436.356391633882	338.841741765630	767.832406138109	1360.322303990975	482.529270922098	703.555322636161	1423.304071382955	669.769964638942	660.245441087977	1489.477809640208	492.286616414192	741.960829566500	933.027628246589	613.839917447283	738.231652683710	720.151262511709	583.270536100897	634.656692077669	626.807203496004	647.059162728500	689.660121178190	561.654416747700	563.983292432346	668.406900706801	476.336612435422	565.967964103791	779.010621966298	763.392189990097	367.074548432295	715.514631994666	634.935211381996	301.332401187041	819.044911016266	574.627718261485	358.690068180328	841.622868137533	507.412206492901	358.760066304919	824.119965207049	434.418734441766	350.899331844981	751.883703599812	305.722975406607	306.261949657882	835.845112161528	205.361112483990	362.255094080842	629.416138855046	393.417884383458	572.793904244031	547.646391467280	298.176343602875	634.281314510888	574.532290013755	200.399182827608	567.692114416586	422.883448078797	42.937576650607	534.652885172361	594.588267244198	95.728409281611	572.152573815809	505.603330905273	35.486046854519	609.344847878371	713.898795204042	40.958626198981	601.483593643168	740.801072677538	37.752228558778	405.872362124072	813.267810871569	36.227811512585	323.931197826134	893.000913789320	102.977087512176	344.702563240078	1022.302347789573	58.279661245686	315.658321647329	522.123304023372	1107.576907474988	224.935650468002	521.945052566285	846.461274339285	210.882156854802	801.294480165690	1085.931022533591	757.130564154378	1042.173616130118	1094.565313034922	679.648797053608	
